<svg width="86" height="81" viewBox="0 0 86 81" fill="none" xmlns="http://www.w3.org/2000/svg">
<path opacity="0.25" fill-rule="evenodd" clip-rule="evenodd" d="M43 79.5401C66.196 79.5401 85 61.9583 85 40.2701C85 18.5818 66.196 1 43 1C19.804 1 1 18.5818 1 40.2701C1 61.9583 19.804 79.5401 43 79.5401Z" stroke="white" stroke-width="1.5"/>
<path d="M46.8238 30.2173H50.6839C51.039 30.2173 51.3272 29.9633 51.3272 29.6504V26.2494C51.3272 25.9366 51.039 25.6826 50.6839 25.6826H46.8238C42.9225 25.6826 39.7469 28.4794 39.7469 31.9178V35.8856H35.2434C34.8883 35.8856 34.6001 36.1395 34.6001 36.4524V39.8534C34.6001 40.1663 34.8883 40.4202 35.2434 40.4202H39.7469V52.3237C39.7469 52.6366 40.0351 52.8905 40.3903 52.8905H44.2504C44.6055 52.8905 44.8937 52.6366 44.8937 52.3237V40.4202H49.3972C49.6738 40.4202 49.9196 40.2638 50.0084 40.0325L51.2951 36.6315C51.3607 36.4592 51.3272 36.2687 51.2063 36.1202C51.084 35.9729 50.891 35.8856 50.6839 35.8856H44.8937V31.9178C44.8937 30.9802 45.7597 30.2173 46.8238 30.2173Z" fill="white"/>
</svg>
