<svg width="709" height="499" viewBox="0 0 709 499" fill="none" xmlns="http://www.w3.org/2000/svg">
              <g opacity="0.6">
                <g opacity="0.2">
                  <path
                    d="M264.8 38.1367C287.525 51.4542 307.576 67.1931 323.617 85.3533C302.229 91.4067 282.178 99.8815 264.8 109.567C241.407 122.885 221.356 139.229 205.315 157.994C194.621 151.941 182.59 147.098 168.554 143.466C150.508 139.229 129.12 136.807 103.722 136.807C-33.2946 136.807 -56.6877 206.422 -56.6877 309.33L-56.6877 561.757L264.132 561.757L264.132 381.365C264.132 297.223 282.178 235.478 361.714 215.502C367.729 213.686 375.082 212.475 381.765 211.264C384.439 226.398 385.107 242.137 385.107 257.876L385.107 697.959L-179 697.959L-179 257.876C-179 120.463 -88.7696 0.000127365 103.054 0.000125222C169.223 0.000124482 222.692 14.5283 264.8 38.1367Z"
                    fill="white"
                  />
                </g>
                <g opacity="0.4">
                  <path
                    d="M426.546 72.4088C388.449 72.4088 354.362 77.2516 323.616 85.7264C302.228 91.7798 282.177 100.255 264.8 109.94C241.406 123.258 221.355 139.602 205.314 158.367C189.942 175.317 177.911 194.688 168.554 215.269C152.513 250.379 144.492 289.121 144.492 329.679L144.492 562.13L264.131 562.13L264.131 381.738C264.131 297.596 282.177 235.851 361.714 215.875C367.729 214.059 375.081 212.848 381.765 211.637C395.132 209.821 409.837 208.611 426.546 208.611C563.563 208.611 586.956 278.225 586.956 381.133L586.956 562.13L385.775 562.13L385.775 698.332L708.6 698.332L708.6 329.679C708.6 192.872 618.369 72.4088 426.546 72.4088Z"
                    fill="white"
                  />
                </g>
              </g>
            </svg>