<svg width="86" height="81" viewBox="0 0 86 81" fill="none" xmlns="http://www.w3.org/2000/svg">
<path opacity="0.25" fill-rule="evenodd" clip-rule="evenodd" d="M43 79.5401C66.196 79.5401 85 61.9583 85 40.2701C85 18.5818 66.196 1 43 1C19.804 1 1 18.5818 1 40.2701C1 61.9583 19.804 79.5401 43 79.5401Z" stroke="white" stroke-width="1.5"/>
<path d="M33.3606 32.6582C35.327 32.6582 36.9211 31.1677 36.9211 29.3291C36.9211 27.4905 35.327 26 33.3606 26C31.3941 26 29.8 27.4905 29.8 29.3291C29.8 31.1677 31.3941 32.6582 33.3606 32.6582Z" fill="white"/>
<path d="M36.3277 34.8828H30.3935C30.0659 34.8828 29.8 35.1314 29.8 35.4377V52.0831C29.8 52.3894 30.0659 52.638 30.3935 52.638H36.3277C36.6552 52.638 36.9211 52.3894 36.9211 52.0831V35.4377C36.9211 35.1314 36.6552 34.8828 36.3277 34.8828Z" fill="white"/>
<path d="M51.7133 34.3452C49.177 33.5329 46.0046 34.2464 44.1021 35.5259C44.0368 35.2873 43.8042 35.1098 43.5276 35.1098H37.5934C37.2659 35.1098 37 35.3583 37 35.6646V52.3101C37 52.6163 37.2659 52.8649 37.5934 52.8649H43.5276C43.8552 52.8649 44.121 52.6163 44.121 52.3101V40.3475C45.08 39.5752 46.3155 39.3288 47.3267 39.7305C48.307 40.1178 48.8684 41.0633 48.8684 42.3228V52.3101C48.8684 52.6163 49.1343 52.8649 49.4618 52.8649H55.396C55.7236 52.8649 55.9894 52.6163 55.9894 52.3101V41.2053C55.9218 36.6456 53.6276 34.9577 51.7133 34.3452Z" fill="white"/>
</svg>
