<svg width="86" height="81" viewBox="0 0 86 81" fill="none" xmlns="http://www.w3.org/2000/svg">
<path opacity="0.25" fill-rule="evenodd" clip-rule="evenodd" d="M43 79.5401C66.196 79.5401 85 61.9583 85 40.2701C85 18.5818 66.196 1 43 1C19.804 1 1 18.5818 1 40.2701C1 61.9583 19.804 79.5401 43 79.5401Z" stroke="white" stroke-width="1.5"/>
<path d="M56.7284 33.0098C56.5335 32.8039 56.2193 32.7521 55.9615 32.8791C55.8012 32.958 55.4998 33.0616 55.142 33.164C55.5935 32.5868 55.9564 31.9405 56.1167 31.3596C56.1859 31.1093 56.0846 30.8453 55.864 30.6961C55.6435 30.5481 55.3498 30.5481 55.1292 30.6961C54.7817 30.9292 53.1043 31.6297 52.0437 31.8567C49.6469 29.8377 46.8576 29.628 43.9581 31.256C41.601 32.5794 41.088 35.2705 41.188 36.9108C35.7929 36.4113 32.4394 33.6709 30.5517 31.4028C30.4196 31.2437 30.2067 31.1598 30.0066 31.1722C29.7963 31.187 29.6065 31.2992 29.4988 31.4731C28.6062 32.9223 28.3587 34.5243 28.7858 36.1067C29.0192 36.97 29.427 37.731 29.9002 38.3476C29.6732 38.2403 29.4539 38.1059 29.2474 37.9456C29.0577 37.7951 28.7922 37.7667 28.5678 37.8666C28.3446 37.969 28.2023 38.1861 28.2023 38.4241C28.2023 41.1411 29.9695 42.9541 31.6199 43.9013C31.3532 43.8705 31.0749 43.8137 30.794 43.7311C30.553 43.6608 30.2913 43.7311 30.1246 43.9136C29.9579 44.0949 29.9182 44.3539 30.022 44.5747C30.9492 46.5468 32.7061 47.9034 34.8798 48.3955C32.9819 49.4673 30.4414 49.9927 28.1151 49.7349C27.8137 49.6942 27.5264 49.878 27.4315 50.1567C27.3366 50.4354 27.461 50.7413 27.7265 50.8844C31.2557 52.7898 34.4464 53.4706 37.2036 53.4706C41.2163 53.4706 44.3133 52.0301 46.1985 50.8252C51.2807 47.5815 54.4483 41.7578 54.0071 36.547C54.8214 35.9686 56.0397 34.9005 56.7951 33.7523C56.9515 33.5204 56.9233 33.2146 56.7284 33.0098Z" fill="white"/>
</svg>
